<?xml version="1.0" standalone="no"?>
<!DOCTYPE svg PUBLIC "-//W3C//DTD SVG 20010904//EN"
 "http://www.w3.org/TR/2001/REC-SVG-20010904/DTD/svg10.dtd">
<svg version="1.0" xmlns="http://www.w3.org/2000/svg"
 width="1130.000000pt" height="1130.000000pt" viewBox="0 0 1130.000000 1130.000000"
 preserveAspectRatio="xMidYMid meet">
<metadata>
Created by potrace 1.11, written by Peter Selinger 2001-2013
</metadata>
<g transform="translate(0.000000,1130.000000) scale(0.100000,-0.100000)"
fill="#000000" stroke="none">
<path d="M5476 11223 c-1 -1 -51 -5 -111 -8 -132 -6 -261 -18 -350 -31 -22 -4
-56 -8 -75 -9 -19 -1 -42 -5 -50 -8 -8 -4 -51 -11 -95 -18 -44 -6 -87 -12 -95
-13 -8 -1 -24 -5 -35 -9 -11 -3 -36 -8 -55 -11 -35 -6 -62 -11 -110 -21 -14
-3 -34 -7 -45 -9 -11 -3 -65 -16 -120 -31 -55 -14 -107 -28 -115 -29 -100 -25
-396 -118 -433 -138 -10 -5 -26 -11 -35 -13 -27 -5 -156 -56 -167 -65 -5 -5
-14 -8 -18 -8 -23 2 -398 -176 -562 -265 -44 -24 -96 -53 -115 -63 -19 -10
-36 -22 -38 -26 -2 -5 -8 -8 -13 -8 -5 0 -54 -29 -109 -65 -55 -35 -100 -61
-100 -57 0 4 -4 2 -8 -5 -6 -10 -109 -83 -117 -83 -2 0 -16 -11 -31 -25 -15
-14 -31 -25 -37 -25 -5 0 -24 -12 -42 -27 -18 -16 -48 -39 -66 -53 -57 -43
-229 -180 -248 -198 -10 -9 -42 -37 -71 -62 -126 -108 -177 -157 -375 -363
-119 -124 -128 -134 -225 -249 -97 -113 -175 -212 -171 -217 1 -2 -1 -7 -6
-10 -16 -10 -133 -169 -133 -180 0 -5 -4 -11 -9 -13 -5 -1 -32 -39 -60 -83
-28 -44 -55 -85 -61 -92 -5 -7 -10 -15 -10 -18 0 -4 -13 -25 -28 -48 -16 -23
-32 -49 -35 -57 -4 -8 -20 -37 -37 -65 -17 -27 -38 -66 -48 -85 -9 -19 -20
-37 -24 -40 -12 -9 -228 -450 -228 -466 0 -6 -79 -196 -90 -216 -6 -10 -10
-25 -10 -33 0 -8 -4 -23 -9 -33 -15 -28 -51 -119 -54 -139 -2 -10 -9 -31 -15
-46 -7 -16 -12 -33 -12 -40 0 -6 -6 -29 -14 -52 -20 -55 -44 -135 -50 -165 -3
-14 -13 -52 -22 -85 -9 -33 -17 -64 -18 -70 -1 -5 -5 -19 -9 -30 -3 -11 -8
-37 -12 -59 -3 -21 -8 -42 -11 -47 -3 -5 -7 -22 -9 -37 -4 -27 -19 -104 -30
-152 -3 -14 -8 -42 -10 -63 -2 -20 -6 -45 -9 -55 -6 -22 -16 -87 -21 -137 -2
-22 -6 -58 -9 -80 -17 -135 -20 -167 -20 -227 -1 -38 -3 -68 -6 -68 -14 0 -19
-457 -7 -675 8 -153 23 -340 27 -340 2 0 7 -44 14 -115 2 -30 8 -71 12 -90 3
-19 7 -42 8 -50 1 -9 5 -20 8 -25 3 -6 4 -18 2 -28 -1 -11 3 -38 11 -62 7 -24
11 -46 9 -48 -3 -2 0 -15 5 -28 4 -13 11 -43 14 -67 4 -23 23 -106 42 -185 20
-78 38 -149 40 -158 2 -9 13 -47 25 -85 12 -38 23 -76 25 -84 2 -8 11 -37 20
-64 9 -26 18 -56 20 -65 2 -9 15 -47 30 -86 14 -38 35 -97 47 -130 11 -33 30
-78 41 -100 11 -22 19 -41 19 -42 -2 -5 28 -78 43 -105 8 -14 15 -33 15 -41 0
-8 7 -20 15 -27 9 -7 13 -15 11 -17 -3 -3 4 -20 15 -39 10 -19 19 -41 19 -48
0 -8 3 -16 8 -18 4 -1 32 -52 61 -113 47 -93 114 -217 151 -275 50 -81 80
-133 80 -141 0 -5 4 -9 9 -9 5 0 14 -13 21 -30 7 -17 16 -30 21 -30 4 0 11
-10 15 -22 3 -12 10 -26 15 -32 5 -6 32 -42 59 -81 27 -38 53 -74 58 -80 4 -5
18 -26 32 -45 31 -45 208 -270 229 -291 25 -26 61 -69 61 -74 0 -3 15 -20 32
-39 18 -19 49 -53 68 -76 70 -83 460 -460 465 -450 1 3 27 -16 56 -42 86 -74
178 -148 185 -148 4 0 14 -8 23 -18 9 -9 33 -28 53 -42 21 -14 38 -29 38 -33
0 -5 4 -6 9 -2 6 3 13 0 18 -8 4 -7 46 -39 93 -72 47 -32 88 -63 92 -69 4 -6
8 -8 8 -4 0 7 59 -29 87 -52 7 -5 14 -10 17 -10 3 0 24 -13 48 -29 24 -16 61
-39 83 -52 123 -70 210 -117 292 -159 51 -26 99 -53 108 -60 8 -7 15 -10 15
-7 0 3 39 -12 88 -34 48 -23 111 -52 140 -65 29 -13 58 -24 65 -24 7 0 18 -5
25 -12 6 -6 18 -13 26 -14 8 -1 68 -23 134 -49 65 -25 128 -47 140 -48 12 -1
22 -4 22 -8 0 -4 12 -10 28 -13 34 -8 161 -46 187 -57 11 -5 31 -11 45 -13 14
-3 70 -17 125 -31 55 -15 107 -28 115 -30 8 -2 38 -9 65 -15 28 -6 61 -14 75
-16 14 -2 36 -7 50 -10 64 -15 72 -16 165 -29 28 -4 57 -11 66 -16 9 -4 18 -6
21 -4 3 4 52 -2 168 -20 238 -35 898 -40 1210 -9 36 4 75 7 88 7 12 1 22 3 22
7 0 3 15 5 33 6 42 0 139 12 202 24 28 5 91 17 140 26 142 26 171 31 193 38 9
3 28 7 42 10 14 2 54 12 90 21 36 9 72 18 80 20 8 2 28 8 43 14 15 6 31 10 35
9 12 -3 309 92 427 137 39 15 75 28 80 29 15 4 44 16 103 43 29 13 71 29 93
36 21 6 39 15 39 19 0 5 5 8 11 8 21 0 354 162 435 212 21 13 50 29 64 36 14
7 34 18 45 25 11 7 43 25 70 41 84 49 336 217 414 275 40 31 81 61 90 66 9 6
18 12 21 15 3 3 25 21 50 40 25 19 47 37 50 41 3 3 32 28 65 55 33 26 65 53
71 58 6 6 36 31 65 56 47 40 431 421 463 460 6 8 41 49 77 90 35 41 86 102
112 135 26 33 59 74 72 90 14 17 54 71 90 120 35 50 68 95 72 100 31 36 211
325 285 455 73 128 253 495 263 535 1 6 9 26 18 45 28 65 68 165 72 180 2 8
11 33 20 55 10 22 37 103 61 180 25 77 49 154 55 172 5 18 12 40 14 50 7 30
23 86 33 121 6 17 9 32 6 32 -3 0 0 8 5 19 6 10 13 31 16 47 14 78 23 119 26
119 1 0 3 9 4 21 2 16 14 80 20 104 5 22 15 84 21 125 3 28 8 53 10 57 3 4 7
29 9 55 5 49 11 89 21 133 7 35 13 84 19 160 2 36 8 112 12 170 10 139 10 558
-1 690 -4 58 -8 116 -8 130 -1 22 -21 210 -33 295 -2 16 -7 52 -10 79 -3 27
-8 52 -10 56 -2 3 -6 24 -8 45 -3 22 -8 51 -11 65 -3 14 -8 36 -10 50 -3 14
-10 48 -15 75 -6 28 -13 61 -16 75 -8 40 -13 65 -15 65 -2 0 -7 28 -13 62 -2
12 -6 26 -10 29 -4 4 -7 17 -7 28 0 12 -7 40 -15 63 -8 22 -16 53 -19 67 -3
14 -9 40 -15 58 -80 245 -115 348 -126 373 -15 34 -28 68 -29 75 -1 5 -20 52
-41 105 -7 17 -24 56 -39 88 -14 32 -26 60 -26 62 0 7 -166 340 -202 405 -100
183 -281 466 -381 597 -23 31 -49 65 -57 77 -43 62 -193 246 -201 246 -5 0 -9
5 -9 11 0 7 -8 19 -17 28 -10 9 -49 52 -88 96 -123 140 -377 384 -550 529 -33
28 -62 53 -65 56 -3 3 -25 21 -50 40 -25 19 -50 39 -57 45 -46 38 -187 140
-220 160 -18 11 -33 22 -33 26 0 4 -13 12 -30 19 -16 7 -30 15 -30 19 0 4 -27
23 -60 42 -33 18 -60 37 -60 42 0 4 -4 7 -9 7 -5 0 -57 29 -116 65 -58 36
-108 65 -111 65 -3 0 -19 9 -35 21 -16 11 -29 17 -29 12 0 -4 -4 -3 -8 3 -12
19 -426 217 -582 279 -80 32 -158 63 -175 70 -16 7 -61 22 -100 35 -38 12 -81
27 -94 33 -13 6 -29 12 -35 12 -6 1 -36 9 -67 18 -31 10 -66 19 -77 22 -11 2
-29 8 -40 14 -11 6 -22 8 -24 6 -3 -3 -21 2 -41 10 -21 8 -37 13 -37 10 0 -2
-11 0 -25 5 -14 5 -36 12 -48 14 -12 3 -65 14 -117 26 -131 30 -101 24 -377
72 -35 5 -77 11 -95 13 -38 3 -146 16 -169 20 -19 4 -155 14 -269 21 -86 5
-510 11 -514 7z m3259 -2460 c-8 -15 -12 -30 -9 -35 3 -4 0 -8 -5 -8 -6 0 -11
-9 -11 -20 0 -11 -4 -20 -10 -20 -5 0 -7 -7 -4 -15 4 -8 2 -15 -3 -15 -5 0
-10 -6 -10 -12 0 -7 -7 -29 -15 -48 -9 -19 -26 -62 -37 -95 -12 -33 -26 -69
-31 -80 -5 -11 -35 -85 -65 -165 -31 -80 -69 -176 -84 -215 -16 -38 -32 -79
-36 -90 -5 -11 -9 -22 -10 -25 -15 -45 -70 -186 -95 -245 -24 -57 -94 -239
-95 -245 0 -3 -8 -25 -17 -48 -10 -23 -26 -61 -35 -84 -10 -23 -17 -45 -16
-48 0 -3 -4 -14 -10 -25 -6 -11 -11 -22 -12 -25 0 -3 -8 -24 -17 -45 -40 -92
-51 -121 -52 -130 -1 -5 -6 -19 -13 -30 -6 -11 -11 -22 -11 -25 -1 -11 -68
-187 -83 -215 -6 -12 -11 -27 -13 -35 -3 -16 -13 -41 -47 -119 -11 -27 -22
-55 -23 -62 -1 -8 -7 -25 -13 -39 -10 -23 -35 -88 -53 -135 -4 -11 -12 -31
-18 -45 -25 -57 -44 -106 -47 -124 -3 -10 -9 -24 -16 -32 -6 -8 -8 -14 -5 -14
4 0 1 -10 -6 -22 -6 -13 -13 -31 -15 -41 -2 -10 -12 -36 -23 -57 -11 -22 -18
-40 -14 -40 3 0 -5 -17 -18 -37 -12 -21 -21 -39 -20 -41 5 -4 -58 -165 -70
-179 -6 -7 -8 -13 -5 -13 4 0 -4 -26 -17 -57 -21 -51 -35 -86 -41 -103 -6 -18
-20 -52 -40 -100 -12 -30 -28 -72 -35 -93 l-12 -37 95 -93 c52 -50 248 -243
436 -427 188 -184 348 -338 356 -343 8 -4 15 -15 15 -22 0 -8 4 -15 8 -15 5 0
73 -63 151 -140 l143 -141 -94 -95 c-51 -53 -173 -177 -271 -275 l-178 -180
-117 118 c-225 225 -824 808 -839 816 -17 10 -22 7 -28 -19 -2 -11 -23 -66
-45 -124 -56 -141 -57 -144 -56 -151 0 -3 -4 -12 -10 -20 -9 -11 -32 -68 -39
-99 -1 -3 -8 -18 -15 -35 -7 -16 -14 -34 -16 -40 -1 -5 -10 -28 -19 -49 l-17
-39 349 -344 c191 -190 369 -364 395 -388 l46 -44 -100 -103 c-55 -57 -176
-180 -268 -274 l-168 -172 -239 233 c-131 129 -252 247 -270 264 -17 17 -35
31 -41 31 -8 0 -60 -111 -66 -142 -2 -7 -8 -24 -14 -38 -6 -14 -41 -101 -77
-195 -36 -93 -77 -197 -91 -230 -14 -33 -27 -67 -29 -75 -2 -8 -17 -49 -34
-90 -17 -41 -31 -83 -31 -92 0 -10 -4 -18 -9 -18 -5 0 -11 -10 -15 -23 -3 -13
-13 -41 -22 -63 -10 -21 -19 -46 -20 -54 -2 -8 -7 -23 -13 -35 -5 -11 -33 -81
-61 -155 -29 -74 -58 -146 -65 -160 -7 -14 -13 -29 -14 -35 0 -9 -18 -56 -44
-115 -6 -14 -12 -29 -12 -35 -1 -5 -9 -25 -18 -42 -10 -18 -15 -33 -13 -33 5
0 -32 -91 -56 -138 -11 -21 -21 -13 -212 177 -111 109 -269 265 -353 346 -103
101 -150 153 -146 164 3 9 9 25 13 36 25 59 72 182 75 195 4 15 57 151 81 205
12 28 51 128 134 345 18 47 39 99 46 115 7 17 16 41 19 54 4 13 14 40 23 60 9
20 16 38 17 41 0 3 7 16 15 30 7 14 12 25 9 25 -3 0 48 137 71 190 13 28 44
110 70 180 24 63 29 77 53 135 27 67 46 115 58 151 l12 37 -144 141 c-79 78
-174 171 -211 207 -38 36 -68 70 -68 75 0 5 -4 9 -9 9 -5 0 -92 82 -194 183
-101 100 -348 342 -547 537 -199 195 -459 451 -577 568 l-216 213 -41 -16
c-23 -9 -54 -22 -71 -30 -129 -55 -153 -65 -159 -65 -3 0 -25 -9 -49 -19 -23
-11 -91 -40 -152 -64 -246 -102 -341 -139 -352 -140 -7 0 -13 -4 -13 -8 0 -4
-12 -10 -26 -13 -14 -4 -45 -15 -68 -25 -22 -10 -77 -33 -121 -51 -44 -18
-100 -41 -123 -52 -69 -30 -156 -62 -164 -60 -5 1 -8 -2 -8 -8 0 -6 -3 -9 -8
-8 -6 3 -84 -27 -167 -63 -11 -4 -65 -27 -120 -49 -55 -23 -108 -45 -117 -50
-10 -6 -24 -10 -31 -10 -18 0 -707 674 -707 692 0 4 5 8 10 8 6 0 61 21 123
47 62 26 114 48 117 48 3 1 21 9 40 18 19 9 82 35 140 57 115 46 277 113 327
136 17 8 34 14 38 14 3 0 31 11 61 25 30 14 57 25 60 25 3 0 20 7 37 14 18 8
73 31 122 51 50 20 99 40 110 45 11 5 61 26 110 46 50 20 108 44 130 54 38 16
74 31 85 35 3 1 32 14 65 29 33 16 67 30 75 31 8 2 33 13 55 24 21 12 45 21
52 21 7 0 13 3 13 7 0 4 -119 125 -265 270 -146 144 -265 264 -265 268 0 3 44
50 98 104 53 54 171 173 261 264 91 92 167 167 171 167 5 0 197 -187 655 -640
l120 -118 53 23 c28 13 52 22 52 19 0 -3 10 2 22 10 12 9 28 16 35 16 6 0 40
13 75 29 34 16 66 27 70 25 5 -3 8 0 8 5 0 6 8 11 18 11 10 0 22 4 27 9 8 7
98 44 115 47 3 0 27 10 53 22 27 12 53 22 58 22 20 0 7 22 -38 66 -220 212
-836 819 -876 861 l-28 30 146 146 c80 80 145 151 145 158 0 7 3 10 6 7 3 -3
59 49 124 115 l120 122 137 -135 c156 -152 307 -300 738 -726 165 -162 305
-300 312 -305 7 -7 18 -7 30 -1 10 6 38 18 63 27 25 10 64 26 87 36 24 11 45
19 47 19 3 0 17 5 33 12 15 6 30 12 33 13 3 1 19 7 35 14 17 8 39 17 50 22 32
13 148 60 170 70 11 5 76 31 145 60 69 28 136 56 150 62 14 5 27 11 30 12 3 1
19 7 35 14 17 6 44 17 60 23 17 6 34 15 39 20 6 4 15 8 22 8 6 0 33 10 60 22
27 12 51 23 54 23 3 1 18 7 33 13 16 7 33 12 38 12 5 0 9 5 9 10 0 6 3 9 8 8
4 0 16 2 27 6 11 5 36 14 55 21 19 7 58 23 85 36 28 12 55 23 60 25 9 2 276
111 335 137 14 5 27 11 30 12 3 1 23 9 45 19 22 10 45 19 50 20 6 2 21 8 35
13 14 6 66 28 115 48 50 20 104 43 120 50 17 7 55 22 85 34 30 12 64 26 75 31
11 5 61 25 110 45 50 20 99 40 110 45 11 5 31 12 45 16 14 4 27 10 30 13 3 3
84 38 180 76 96 38 178 74 181 78 3 5 9 8 13 7 4 -1 25 5 46 14 22 9 43 16 48
16 4 1 16 7 27 14 11 7 43 20 70 30 48 18 136 54 200 82 38 17 47 10 30 -23z"/>
<path d="M7057 7109 c-11 -6 -24 -12 -30 -13 -7 -1 -30 -10 -52 -20 -22 -9
-107 -44 -190 -77 -82 -33 -164 -67 -181 -74 -49 -23 -227 -95 -244 -100 -8
-2 -28 -10 -45 -19 -16 -8 -37 -16 -45 -18 -8 -2 -17 -6 -20 -10 -3 -4 -15 -9
-25 -11 -11 -2 -36 -11 -55 -19 -19 -9 -55 -24 -80 -34 -25 -10 -49 -21 -54
-25 -9 -8 308 -329 325 -329 5 0 9 -7 9 -15 0 -8 3 -15 8 -15 4 0 71 -63 150
-141 78 -77 148 -139 155 -136 6 2 14 12 16 23 2 10 11 37 21 59 9 22 27 67
39 99 12 33 25 64 29 70 4 6 7 13 7 16 2 16 54 146 77 194 5 10 11 28 14 40 2
11 8 30 13 41 10 23 29 72 66 170 15 39 33 84 41 102 8 17 14 34 14 37 0 4 7
23 17 44 9 20 17 39 18 42 9 35 30 90 41 108 13 20 13 22 -3 22 -10 0 -26 -5
-36 -11z"/>
<path d="M5150 6329 c-41 -16 -84 -34 -95 -39 -29 -14 -268 -111 -280 -114 -5
-2 -23 -8 -38 -14 -16 -7 -33 -12 -38 -12 -5 0 -9 -5 -9 -11 0 -5 -5 -7 -10
-4 -6 3 -13 -1 -16 -9 -4 -11 23 -45 88 -109 320 -314 1067 -1048 1210 -1189
93 -93 173 -168 176 -168 7 0 24 34 43 85 4 11 23 61 42 110 20 50 61 154 91
233 31 79 56 150 56 158 0 8 -104 117 -231 242 -326 319 -591 581 -750 738
-74 74 -142 134 -150 133 -8 0 -48 -13 -89 -30z"/>
</g>
</svg>
